<?xml version="1.0" encoding="iso-8859-1"?>
<!-- Uploaded to: SVG Repo, www.svgrepo.com, Generator: SVG Repo Mixer Tools -->
<svg fill="#000000" height="800px" width="800px" version="1.1" id="Layer_1" xmlns="http://www.w3.org/2000/svg" xmlns:xlink="http://www.w3.org/1999/xlink" 
	 viewBox="0 0 512 512" xml:space="preserve">
<g>
	<g>
		<path d="M503.467,448H384V320c71.68-4.267,128-64,128-136.533c0-75.093-61.44-136.533-136.533-136.533
			s-136.533,61.44-136.533,136.533c0,72.533,56.32,131.413,128,136.533v128h-76.8v-25.6H307.2c5.12,0,8.533-3.413,8.533-8.533
			v-21.333c0-15.36-11.093-27.307-25.6-29.867V345.6c0-5.12-3.413-8.533-8.533-8.533s-8.533,3.413-8.533,8.533v17.067h-34.133V345.6
			c0-5.12-3.413-8.533-8.533-8.533s-8.533,3.413-8.533,8.533v17.92c-14.507,2.56-25.6,14.507-25.6,29.867v20.48
			c0,5.12,3.413,8.533,8.533,8.533h17.067V448h-102.4v-76.8c57.173-4.267,102.4-52.053,102.4-110.933
			c0-61.44-49.493-110.933-110.933-110.933S0,198.827,0,260.267C0,318.293,45.227,366.08,102.4,371.2V448H8.533
			C3.413,448,0,451.413,0,456.533s3.413,8.533,8.533,8.533h494.933c5.12,0,8.533-3.413,8.533-8.533S508.587,448,503.467,448z
			 M273.067,448h-34.133v-25.6h34.133V448z"/>
	</g>
</g>
</svg>